<?xml version="1.0" standalone="no"?>
<!DOCTYPE svg PUBLIC "-//W3C//DTD SVG 20010904//EN"
 "http://www.w3.org/TR/2001/REC-SVG-20010904/DTD/svg10.dtd">
<svg version="1.0" xmlns="http://www.w3.org/2000/svg"
 width="300.000000pt" height="300.000000pt" viewBox="0 0 300.000000 300.000000"
 preserveAspectRatio="xMidYMid meet">
<metadata>
Created by potrace 1.10, written by Peter Selinger 2001-2011
</metadata>
<g transform="translate(0.000000,300.000000) scale(0.100000,-0.100000)"
fill="#e13438" stroke="none">
<path d="M1280 2959 c-30 -5 -58 -13 -63 -18 -5 -5 8 -34 27 -64 49 -77 114
-237 192 -479 36 -112 72 -217 80 -235 8 -17 14 -38 14 -46 0 -19 101 -269
131 -326 13 -24 40 -62 60 -84 29 -34 42 -41 72 -41 93 0 160 131 331 649 59
176 116 343 128 372 17 42 19 55 9 67 -17 20 -201 110 -291 141 -162 57 -231
68 -440 71 -107 1 -220 -2 -250 -7z"/>
<path d="M892 2835 c-188 -90 -360 -224 -489 -380 -295 -360 -404 -853 -286
-1291 l17 -61 51 66 c129 168 238 342 318 506 11 22 25 47 32 55 46 53 128
258 255 645 80 243 139 398 175 463 13 23 23 42 22 42 -1 0 -44 -20 -95 -45z"/>
<path d="M2819 1963 c-78 -87 -251 -331 -321 -453 -70 -124 -211 -408 -239
-482 -17 -45 -75 -216 -129 -378 -54 -162 -119 -341 -143 -397 l-44 -102 63
24 c468 176 808 588 905 1095 40 205 23 498 -39 679 l-18 53 -35 -39z"/>
<path d="M1038 1289 c-26 -28 -48 -55 -48 -60 0 -4 -15 -41 -34 -81 -18 -40
-39 -86 -46 -103 -13 -32 -108 -312 -154 -453 -14 -45 -40 -119 -56 -163 l-29
-80 62 -40 c249 -160 565 -243 853 -224 l101 7 -33 55 c-47 79 -94 202 -201
523 -51 157 -100 299 -108 317 -8 17 -15 36 -15 42 0 6 -4 19 -9 29 -5 9 -29
60 -55 113 -30 65 -59 108 -86 133 -57 51 -82 48 -142 -15z"/>
</g>
</svg>
