<?xml version="1.0" encoding="UTF-8" standalone="no"?>
<!DOCTYPE svg PUBLIC "-//W3C//DTD SVG 1.1//EN" "http://www.w3.org/Graphics/SVG/1.1/DTD/svg11.dtd">
<svg width="100%" height="100%" viewBox="0 0 1200 175" version="1.1" xmlns="http://www.w3.org/2000/svg" xmlns:xlink="http://www.w3.org/1999/xlink" xml:space="preserve" xmlns:serif="http://www.serif.com/" style="fill-rule:evenodd;clip-rule:evenodd;stroke-linejoin:round;stroke-miterlimit:1.41421;">
    <g transform="matrix(1.07159,0,0,1.04095,8.71035,22.7753)">
        <path d="M108.776,35.619C104.509,33.059 100.1,30.783 95.549,28.792C91.709,27.085 87.407,25.485 82.643,23.992C77.878,22.499 73.22,21.752 68.669,21.752C64.972,21.752 62.02,22.321 59.816,23.459C57.612,24.596 56.509,26.516 56.509,29.219C56.509,31.21 57.149,32.845 58.429,34.125C59.709,35.405 61.558,36.579 63.976,37.645C66.394,38.712 69.345,39.743 72.829,40.739C76.314,41.734 80.26,42.943 84.669,44.365C91.638,46.499 97.932,48.845 103.549,51.405C109.167,53.965 113.967,56.988 117.949,60.472C121.932,63.956 124.989,68.188 127.123,73.165C129.256,78.143 130.323,84.188 130.323,91.299C130.323,100.401 128.652,108.045 125.309,114.232C121.967,120.419 117.558,125.361 112.083,129.059C106.607,132.756 100.42,135.423 93.523,137.059C86.625,138.694 79.692,139.512 72.723,139.512C67.176,139.512 61.487,139.085 55.656,138.232C49.825,137.379 44.029,136.17 38.269,134.605C32.509,133.041 26.963,131.192 21.629,129.059C16.296,126.925 11.354,124.508 6.803,121.805L24.723,85.325C29.7,88.454 34.892,91.228 40.296,93.645C44.847,95.779 50.003,97.699 55.763,99.405C61.523,101.112 67.389,101.965 73.363,101.965C77.914,101.965 81.078,101.361 82.856,100.152C84.634,98.943 85.523,97.343 85.523,95.352C85.523,93.219 84.634,91.405 82.856,89.912C81.078,88.419 78.625,87.103 75.496,85.965C72.367,84.828 68.776,83.69 64.723,82.552C60.669,81.414 56.367,80.063 51.816,78.499C45.132,76.223 39.372,73.77 34.536,71.139C29.7,68.508 25.718,65.521 22.589,62.179C19.46,58.836 17.149,55.032 15.656,50.765C14.163,46.499 13.416,41.592 13.416,36.045C13.416,27.654 14.945,20.259 18.003,13.859C21.06,7.459 25.22,2.125 30.483,-2.141C35.745,-6.408 41.754,-9.644 48.509,-11.848C55.265,-14.052 62.412,-15.155 69.949,-15.155C75.496,-15.155 80.9,-14.621 86.163,-13.555C91.425,-12.488 96.509,-11.137 101.416,-9.501C106.323,-7.866 110.909,-6.088 115.176,-4.168C119.443,-2.248 123.283,-0.435 126.696,1.272L108.776,35.619Z" style="fill-rule:nonzero;"/>
        <rect x="148.669" y="-13.875" width="41.6" height="151.467" style="fill-rule:nonzero;"/>
    </g>
    <g transform="matrix(1.07159,0,0,1.04095,389.71,22.7753)">
        <path d="M82.963,101.965C87.798,101.965 91.923,100.899 95.336,98.765C98.749,96.632 101.523,93.823 103.656,90.339C105.789,86.854 107.354,82.836 108.349,78.285C109.345,73.734 109.843,68.97 109.843,63.992L109.843,-13.875L151.443,-13.875L151.443,63.992C151.443,74.516 150.092,84.365 147.389,93.539C144.687,102.712 140.492,110.641 134.803,117.325C129.114,124.01 121.967,129.272 113.363,133.112C104.758,136.952 94.625,138.872 82.963,138.872C70.874,138.872 60.527,136.845 51.923,132.792C43.318,128.739 36.243,123.299 30.696,116.472C25.149,109.645 21.096,101.716 18.536,92.685C15.976,83.654 14.696,74.09 14.696,63.992L14.696,-13.875L56.296,-13.875L56.296,63.992C56.296,68.97 56.794,73.77 57.789,78.392C58.785,83.014 60.349,87.068 62.483,90.552C64.616,94.036 67.354,96.81 70.696,98.872C74.038,100.934 78.127,101.965 82.963,101.965Z" style="fill-rule:nonzero;"/>
        <path d="M266.856,35.619C262.589,33.059 258.18,30.783 253.629,28.792C249.789,27.085 245.487,25.485 240.723,23.992C235.958,22.499 231.3,21.752 226.749,21.752C223.052,21.752 220.1,22.321 217.896,23.459C215.692,24.596 214.589,26.516 214.589,29.219C214.589,31.21 215.229,32.845 216.509,34.125C217.789,35.405 219.638,36.579 222.056,37.645C224.474,38.712 227.425,39.743 230.909,40.739C234.394,41.734 238.34,42.943 242.749,44.365C249.718,46.499 256.012,48.845 261.629,51.405C267.247,53.965 272.047,56.988 276.029,60.472C280.012,63.956 283.069,68.188 285.203,73.165C287.336,78.143 288.403,84.188 288.403,91.299C288.403,100.401 286.732,108.045 283.389,114.232C280.047,120.419 275.638,125.361 270.163,129.059C264.687,132.756 258.5,135.423 251.603,137.059C244.705,138.694 237.772,139.512 230.803,139.512C225.256,139.512 219.567,139.085 213.736,138.232C207.905,137.379 202.109,136.17 196.349,134.605C190.589,133.041 185.043,131.192 179.709,129.059C174.376,126.925 169.434,124.508 164.883,121.805L182.803,85.325C187.78,88.454 192.972,91.228 198.376,93.645C202.927,95.779 208.083,97.699 213.843,99.405C219.603,101.112 225.469,101.965 231.443,101.965C235.994,101.965 239.158,101.361 240.936,100.152C242.714,98.943 243.603,97.343 243.603,95.352C243.603,93.219 242.714,91.405 240.936,89.912C239.158,88.419 236.705,87.103 233.576,85.965C230.447,84.828 226.856,83.69 222.803,82.552C218.749,81.414 214.447,80.063 209.896,78.499C203.212,76.223 197.452,73.77 192.616,71.139C187.78,68.508 183.798,65.521 180.669,62.179C177.54,58.836 175.229,55.032 173.736,50.765C172.243,46.499 171.496,41.592 171.496,36.045C171.496,27.654 173.025,20.259 176.083,13.859C179.14,7.459 183.3,2.125 188.563,-2.141C193.825,-6.408 199.834,-9.644 206.589,-11.848C213.345,-14.052 220.492,-15.155 228.029,-15.155C233.576,-15.155 238.98,-14.621 244.243,-13.555C249.505,-12.488 254.589,-11.137 259.496,-9.501C264.403,-7.866 268.989,-6.088 273.256,-4.168C277.523,-2.248 281.363,-0.435 284.776,1.272L266.856,35.619Z" style="fill-rule:nonzero;"/>
        <path d="M435.603,98.765C435.603,105.592 434.18,111.459 431.336,116.365C428.492,121.272 424.58,125.29 419.603,128.419C414.625,131.548 408.829,133.859 402.216,135.352C395.603,136.845 388.598,137.592 381.203,137.592L306.749,137.592L306.749,-13.875L394.643,-13.875C399.905,-13.875 404.669,-12.737 408.936,-10.461C413.203,-8.186 416.829,-5.235 419.816,-1.608C422.803,2.019 425.114,6.143 426.749,10.765C428.385,15.388 429.203,20.116 429.203,24.952C429.203,32.063 427.389,38.854 423.763,45.325C420.136,51.796 414.696,56.668 407.443,59.939C416.118,62.499 422.98,66.943 428.029,73.272C433.078,79.601 435.603,88.099 435.603,98.765ZM393.363,90.232C393.363,86.534 392.367,83.441 390.376,80.952C388.385,78.463 385.825,77.219 382.696,77.219L348.349,77.219L348.349,102.605L381.203,102.605C384.616,102.605 387.496,101.539 389.843,99.405C392.189,97.272 393.363,94.214 393.363,90.232ZM348.349,21.539L348.349,44.792L376.723,44.792C379.567,44.792 382.163,44.01 384.509,42.445C386.856,40.881 388.029,37.752 388.029,33.059C388.029,28.934 387.034,25.983 385.043,24.205C383.052,22.428 380.705,21.539 378.003,21.539L348.349,21.539Z" style="fill-rule:nonzero;"/>
        <path d="M517.949,138.872C507.14,138.872 497.292,136.668 488.403,132.259C479.514,127.85 471.905,122.054 465.576,114.872C459.247,107.69 454.34,99.476 450.856,90.232C447.372,80.988 445.629,71.459 445.629,61.645C445.629,51.69 447.443,42.09 451.069,32.845C454.696,23.601 459.78,15.459 466.323,8.419C472.865,1.379 480.58,-4.239 489.469,-8.435C498.358,-12.63 508.136,-14.728 518.803,-14.728C529.612,-14.728 539.46,-12.524 548.349,-8.115C557.238,-3.706 564.847,2.125 571.176,9.379C577.505,16.632 582.376,24.881 585.789,34.125C589.203,43.37 590.909,52.828 590.909,62.499C590.909,72.454 589.096,82.019 585.469,91.192C581.843,100.365 576.829,108.472 570.429,115.512C564.029,122.552 556.349,128.205 547.389,132.472C538.429,136.739 528.616,138.872 517.949,138.872ZM487.869,62.072C487.869,67.192 488.474,72.134 489.683,76.899C490.892,81.663 492.776,85.894 495.336,89.592C497.896,93.29 501.096,96.276 504.936,98.552C508.776,100.828 513.256,101.965 518.376,101.965C523.638,101.965 528.189,100.792 532.029,98.445C535.869,96.099 538.998,93.041 541.416,89.272C543.834,85.503 545.647,81.201 546.856,76.365C548.065,71.53 548.669,66.623 548.669,61.645C548.669,56.525 548.029,51.583 546.749,46.819C545.469,42.054 543.585,37.859 541.096,34.232C538.607,30.605 535.443,27.69 531.603,25.485C527.763,23.281 523.283,22.179 518.163,22.179C512.9,22.179 508.385,23.316 504.616,25.592C500.847,27.868 497.718,30.89 495.229,34.659C492.74,38.428 490.892,42.694 489.683,47.459C488.474,52.223 487.869,57.094 487.869,62.072Z" style="fill-rule:nonzero;"/>
        <path d="M723.603,22.392L680.083,22.392L680.083,137.592L638.483,137.592L638.483,22.392L594.749,22.392L594.749,-13.875L723.603,-13.875L723.603,22.392Z" style="fill-rule:nonzero;"/>
    </g>
    <g transform="matrix(0.0558278,0,0,-0.0558278,225.121,172.596)">
        <path d="M1280,2959C1250,2954 1222,2946 1217,2941C1212,2936 1225,2907 1244,2877C1293,2800 1358,2640 1436,2398C1472,2286 1508,2181 1516,2163C1524,2146 1530,2125 1530,2117C1530,2098 1631,1848 1661,1791C1674,1767 1701,1729 1721,1707C1750,1673 1763,1666 1793,1666C1886,1666 1953,1797 2124,2315C2183,2491 2240,2658 2252,2687C2269,2729 2271,2742 2261,2754C2244,2774 2060,2864 1970,2895C1808,2952 1739,2963 1530,2966C1423,2967 1310,2964 1280,2959Z" style="fill-rule:nonzero;"/>
        <path d="M892,2835C704,2745 532,2611 403,2455C108,2095 -1,1602 117,1164L134,1103L185,1169C314,1337 423,1511 503,1675C514,1697 528,1722 535,1730C581,1783 663,1988 790,2375C870,2618 929,2773 965,2838C978,2861 988,2880 987,2880C986,2880 943,2860 892,2835Z" style="fill-rule:nonzero;"/>
        <path d="M2819,1963C2741,1876 2568,1632 2498,1510C2428,1386 2287,1102 2259,1028C2242,983 2184,812 2130,650C2076,488 2011,309 1987,253L1943,151L2006,175C2474,351 2814,763 2911,1270C2951,1475 2934,1768 2872,1949L2854,2002L2819,1963Z" style="fill-rule:nonzero;"/>
        <path d="M1038,1289C1012,1261 990,1234 990,1229C990,1225 975,1188 956,1148C938,1108 917,1062 910,1045C897,1013 802,733 756,592C742,547 716,473 700,429L671,349L733,309C982,149 1298,66 1586,85L1687,92L1654,147C1607,226 1560,349 1453,670C1402,827 1353,969 1345,987C1337,1004 1330,1023 1330,1029C1330,1035 1326,1048 1321,1058C1316,1067 1292,1118 1266,1171C1236,1236 1207,1279 1180,1304C1123,1355 1098,1352 1038,1289Z" style="fill-rule:nonzero;"/>
    </g>
</svg>
